<svg xmlns="http://www.w3.org/2000/svg" viewBox="0 0 246.82 48.48"><defs><style>.cls-1{fill:#262626;}.cls-2{fill:#fb3c32;}.cls-3{fill:#666;}</style></defs><g id="Layer_2" data-name="Layer 2"><g id="Layer_1-2" data-name="Layer 1"><path class="cls-1" d="M175.58,25l-2.66-6.38-2.46-5.92L166.14,2.27h0l-.48-1.14a1.23,1.23,0,0,0-1.15-.77H160.4a1.24,1.24,0,0,0-1.15.77l-.48,1.14h0l-4.32,10.42L152,18.61,149.33,25,147.6,29.2a1.25,1.25,0,0,0,.68,1.63,1.52,1.52,0,0,0,.47.1h4.67a1.27,1.27,0,0,0,1.16-.78l1.75-4.25h0l.38-.91h11.47l.37.91h0l1.75,4.25a1.28,1.28,0,0,0,1.16.78h4.67a1.27,1.27,0,0,0,1.25-1.26,1.1,1.1,0,0,0-.1-.47Zm-16.44-5.92.2-.48,2.46-5.92.64-1.52h0l.64,1.54,2.47,5.92.19.48Z"/><path class="cls-1" d="M0,1.6A1.25,1.25,0,0,1,1.25.35H11.38a22.82,22.82,0,0,1,4.51.43,10.63,10.63,0,0,1,3.7,1.49A7.72,7.72,0,0,1,22.1,5.14,9.78,9.78,0,0,1,23,9.66a10.24,10.24,0,0,1-.87,4.5,7.18,7.18,0,0,1-2.4,2.89,9.53,9.53,0,0,1-3.6,1.54,20.49,20.49,0,0,1-4.49.46H6.72V29.74A1.25,1.25,0,0,1,5.47,31H1.25A1.25,1.25,0,0,1,0,29.74H0ZM6.75,13.33h4.5A7.87,7.87,0,0,0,13,13.16a4.83,4.83,0,0,0,1.52-.58,3.13,3.13,0,0,0,1.08-1.12A3.55,3.55,0,0,0,16,9.66a3,3,0,0,0-.54-1.89,3.71,3.71,0,0,0-1.38-1.1,5.94,5.94,0,0,0-1.89-.5c-.69-.06-1.35-.1-2-.1H6.75Z"/><path class="cls-1" d="M223.19,1.6A1.25,1.25,0,0,1,224.45.35h10.6a22.08,22.08,0,0,1,4.44.45,10.71,10.71,0,0,1,3.68,1.52,7.53,7.53,0,0,1,2.51,2.86,9.75,9.75,0,0,1,.93,4.48,9,9,0,0,1-1.69,5.52A7.61,7.61,0,0,1,240,18.05l6.65,11.05a1.26,1.26,0,0,1-.43,1.72,1.34,1.34,0,0,1-.65.17h-5.12a1.23,1.23,0,0,1-1.11-.67l-6.05-11.58H230v11A1.25,1.25,0,0,1,228.7,31h-4.25a1.25,1.25,0,0,1-1.26-1.25h0ZM230,13h3.94a18.25,18.25,0,0,0,1.93-.07,5.88,5.88,0,0,0,1.85-.39,3.18,3.18,0,0,0,1.36-1,3.12,3.12,0,0,0,.54-2,3.15,3.15,0,0,0-.48-1.86,3.19,3.19,0,0,0-1.16-1.06,5.51,5.51,0,0,0-1.69-.51,14.4,14.4,0,0,0-1.86-.12H230Z"/><path class="cls-1" d="M27.31,1.6A1.25,1.25,0,0,1,28.54.35H39.17A22.05,22.05,0,0,1,43.6.8a10.71,10.71,0,0,1,3.68,1.52,7.69,7.69,0,0,1,2.51,2.86,9.75,9.75,0,0,1,.93,4.48A9.1,9.1,0,0,1,49,15.18a7.61,7.61,0,0,1-4.94,2.87L50.75,29.1A1.25,1.25,0,0,1,49.68,31H44.55a1.21,1.21,0,0,1-1.11-.67l-6-11.58H34.05v11A1.23,1.23,0,0,1,32.82,31H28.55a1.23,1.23,0,0,1-1.24-1.24h0ZM34.05,13h4A18.63,18.63,0,0,0,39.93,13a5.82,5.82,0,0,0,1.83-.39,3.06,3.06,0,0,0,1.36-1,3.07,3.07,0,0,0,.55-2,3.22,3.22,0,0,0-.48-1.86A3,3,0,0,0,42,6.7a5.51,5.51,0,0,0-1.69-.51,14.06,14.06,0,0,0-1.83-.12H34.05Z"/><line class="cls-1" x1="195.91" y1="30.97" x2="195.88" y2="30.97"/><line class="cls-1" x1="198.16" y1="30.97" x2="198.08" y2="30.97"/><path class="cls-1" d="M199.1.36a1.25,1.25,0,0,1,1.25,1.26,1.27,1.27,0,0,1-.09.47l-11,26.53-.65,1.57a1.28,1.28,0,0,1-1.16.78h-3.74a1.25,1.25,0,0,1-1.15-.78l-.67-1.57L171,2.09a1.25,1.25,0,0,1,.68-1.64,1.27,1.27,0,0,1,.47-.09h4.62a1.25,1.25,0,0,1,1.16.78l7.73,18.59,7.68-18.59a1.25,1.25,0,0,1,1.15-.78Z"/><path class="cls-1" d="M128.27.36a1.24,1.24,0,0,1,1.24,1.26,1.27,1.27,0,0,1-.09.47L118.47,28.62l-.66,1.57a1.25,1.25,0,0,1-1.15.78h-3.75a1.28,1.28,0,0,1-1.15-.78l-.67-1.57-4.25-10.26-4.23,10.26L102,30.19a1.25,1.25,0,0,1-1.15.78H97.05a1.28,1.28,0,0,1-1.16-.78l-.65-1.57-11-26.53A1.24,1.24,0,0,1,84.94.46a1.12,1.12,0,0,1,.48-.1h4.67a1.24,1.24,0,0,1,1.15.78l7.68,18.59,4.24-10.27-3-7.37a1.24,1.24,0,0,1,.66-1.63,1.15,1.15,0,0,1,.48-.1h4.67a1.25,1.25,0,0,1,1.16.78l3.48,8.33,4.2,10.26,7.65-18.59a1.25,1.25,0,0,1,1.16-.78Z"/><line class="cls-1" x1="179.19" y1="30.76" x2="179.16" y2="30.76"/><line class="cls-1" x1="164.56" y1="30.76" x2="164.48" y2="30.76"/><path class="cls-1" d="M210.86,6.33l-2.63,6.39H217A1.25,1.25,0,0,1,218.3,14h0v3.48a1.27,1.27,0,0,1-1.21,1.3H205.76l-2.66,6.39H217a1.26,1.26,0,0,1,1.26,1.25h0v3.48a1.24,1.24,0,0,1-1.25,1.24h-22a1.24,1.24,0,0,1-1.26-1.23,1.16,1.16,0,0,1,.1-.49l1.75-4.25,2.65-6.39,2.47-5.92,2.64-6.39,2.15-5.2a1.24,1.24,0,0,1,1.15-.77H217a1.26,1.26,0,0,1,1.26,1.25h0V5.08A1.26,1.26,0,0,1,217,6.33h-6.18Z"/><path class="cls-1" d="M139.93,6.33l-2.64,6.39h10.39A1.24,1.24,0,0,1,148.92,14a1.27,1.27,0,0,1-.09.47l-1.43,3.46a1.25,1.25,0,0,1-1.16.77H134.82l-2.65,6.41h10.39a1.26,1.26,0,0,1,1.26,1.24,1.43,1.43,0,0,1-.1.49l-1.43,3.46a1.25,1.25,0,0,1-1.16.77h-17a1.25,1.25,0,0,1-1.25-1.26,1.18,1.18,0,0,1,.09-.46l1.76-4.24,2.65-6.41,2.47-5.92,2.64-6.39,2.14-5.19A1.25,1.25,0,0,1,135.82.4h17a1.26,1.26,0,0,1,1.16,1.73L152.49,5.6a1.21,1.21,0,0,1-1.15.77Z"/><path class="cls-2" d="M82.73,10.37v.06A15.51,15.51,0,1,0,68.12,31H91.31ZM68.12,28.25A12.76,12.76,0,1,1,80.86,15.47v0A12.75,12.75,0,0,1,68.12,28.25Z"/><path class="cls-1" d="M75.81,15.5A7.72,7.72,0,1,1,68.1,7.77h0A7.72,7.72,0,0,1,75.81,15.5Z"/><path class="cls-3" d="M5.44,37.86H7.1l2.67,9.08H7.52L7,45H3.48l-1,2H.25Zm.39,2.6-1.5,2.87H6.56Z"/><path class="cls-3" d="M12.83,37.86h6.11l-.26,1.84H14.55l-.25,1.85h3.79l-.32,1.87H14L13.54,47h-2Z"/><path class="cls-3" d="M21.19,37.86h6.1L27,39.7h-4.1l-.22,1.85h3.75l-.27,1.87H22.41L21.92,47h-2Z"/><path class="cls-3" d="M28.36,42.44a5.56,5.56,0,0,1,.65-2A5.35,5.35,0,0,1,32,38a6.26,6.26,0,0,1,2-.33,5.42,5.42,0,0,1,1.92.33,3.88,3.88,0,0,1,1.41,1,3.71,3.71,0,0,1,.81,1.48,5.08,5.08,0,0,1,.09,2,5.72,5.72,0,0,1-.65,2,5.33,5.33,0,0,1-1.24,1.51,5.53,5.53,0,0,1-1.69,1,6.27,6.27,0,0,1-2,.34,5.61,5.61,0,0,1-2-.34,3.77,3.77,0,0,1-1.41-1,3.7,3.7,0,0,1-.78-1.51A4.68,4.68,0,0,1,28.36,42.44Zm2.08,0a3.29,3.29,0,0,0,0,1.17,2.38,2.38,0,0,0,.44.92,2,2,0,0,0,.8.61,2.64,2.64,0,0,0,1.14.22A3.22,3.22,0,0,0,34,45.14a3.1,3.1,0,0,0,1.68-1.53,3.44,3.44,0,0,0,.39-1.17,3.29,3.29,0,0,0,0-1.17,2.16,2.16,0,0,0-.44-1,2.1,2.1,0,0,0-.81-.6,2.66,2.66,0,0,0-1.15-.2,3.07,3.07,0,0,0-1.2.21,3.24,3.24,0,0,0-1,.6,4,4,0,0,0-.7,1A3.7,3.7,0,0,0,30.44,42.44Z"/><path class="cls-3" d="M40.94,37.86h3.49a5.59,5.59,0,0,1,1.29.12,2.8,2.8,0,0,1,1,.46,1.78,1.78,0,0,1,.63.85,2.68,2.68,0,0,1,.09,1.32,3.11,3.11,0,0,1-.73,1.64,2.63,2.63,0,0,1-1.58.85l1.77,3.84H44.56l-1.4-3.63h-1l-.51,3.63h-2Zm1.51,3.76h1.76a2.18,2.18,0,0,0,.51-.17,1.21,1.21,0,0,0,.46-.31.93.93,0,0,0,.23-.57.8.8,0,0,0,0-.55A.92.92,0,0,0,45,39.7a2,2,0,0,0-.47-.15H42.7Z"/><path class="cls-3" d="M50,37.86h3a8.16,8.16,0,0,1,2,.23,4.4,4.4,0,0,1,1.61.79,3.14,3.14,0,0,1,1,1.42,4.69,4.69,0,0,1,.15,2.14,4.87,4.87,0,0,1-2,3.38,5.74,5.74,0,0,1-1.75.87,6.58,6.58,0,0,1-2,.3H48.75Zm1,7.23h1.05a5.69,5.69,0,0,0,1.3-.14,3,3,0,0,0,1.1-.47,2.73,2.73,0,0,0,.83-.86,3.69,3.69,0,0,0,.43-1.3,2.45,2.45,0,0,0-.09-1.17,1.78,1.78,0,0,0-.55-.81,2.66,2.66,0,0,0-.93-.48A4.23,4.23,0,0,0,53,39.7H51.79Z"/><path class="cls-3" d="M63.53,37.86h1.63l2.69,9.08H65.6l-.51-2H61.57l-1,2H58.33Zm.4,2.64-1.5,2.83h2.22Z"/><path class="cls-3" d="M70.82,37.86H74.2a7.71,7.71,0,0,1,1.18.08,3,3,0,0,1,1,.33,1.76,1.76,0,0,1,.68.7,2.14,2.14,0,0,1,.12,1.2,2.12,2.12,0,0,1-.57,1.28,3,3,0,0,1-1.24.73h0a2.38,2.38,0,0,1,.78.25,1.5,1.5,0,0,1,.55.48,1.73,1.73,0,0,1,.32.67,2.31,2.31,0,0,1,0,.83,2.56,2.56,0,0,1-.48,1.21,3.13,3.13,0,0,1-.89.77,4.15,4.15,0,0,1-1.16.42,5.71,5.71,0,0,1-1.23.13H69.54Zm1,7.39h1.8a2,2,0,0,0,.48-.06,1.3,1.3,0,0,0,.46-.18,1.23,1.23,0,0,0,.35-.33.94.94,0,0,0,.19-.5.69.69,0,0,0-.09-.52.79.79,0,0,0-.35-.3,1.75,1.75,0,0,0-.51-.14H72.07Zm.51-3.8h1.45a1.76,1.76,0,0,0,.46-.06,1.4,1.4,0,0,0,.43-.16A.94.94,0,0,0,75,41a1,1,0,0,0,.18-.46.94.94,0,0,0-.06-.47.71.71,0,0,0-.28-.29,1.5,1.5,0,0,0-.42-.15,3.53,3.53,0,0,0-.46,0H72.57Z"/><path class="cls-3" d="M80,37.86h2l-1,7.23h3.71l-.26,1.85H78.72Z"/><path class="cls-3" d="M87.64,37.86h6.15l-.26,1.84H89.39l-.25,1.75h4l-.29,1.8h-4l-.26,1.84H93l-.19,1.85H86.38Z"/><path class="cls-3" d="M95.68,44.87h1.84l-1.65,3.61H94.23Z"/><path class="cls-3" d="M105.56,37.86h3a8.11,8.11,0,0,1,2,.23,4.33,4.33,0,0,1,1.61.79,3.07,3.07,0,0,1,1,1.42,4.66,4.66,0,0,1,.14,2.13,4.78,4.78,0,0,1-.68,2,5.22,5.22,0,0,1-1.32,1.41,5.74,5.74,0,0,1-1.75.87,6.65,6.65,0,0,1-2,.3h-3.27Zm1,7.23h1.06a5.78,5.78,0,0,0,1.31-.14,2.94,2.94,0,0,0,1.09-.47,2.66,2.66,0,0,0,.81-.86,3.71,3.71,0,0,0,.44-1.3,2.58,2.58,0,0,0-.09-1.17,1.88,1.88,0,0,0-.56-.81,2.61,2.61,0,0,0-.92-.48,4.3,4.3,0,0,0-1.18-.16h-1.18Z"/><path class="cls-3" d="M116.15,37.86h6.17l-.25,1.84h-4.18l-.24,1.75h3.95l-.25,1.85H117.4l-.26,1.84h4.4L121.29,47h-6.41Z"/><path class="cls-3" d="M124.93,37.86h3.42a5.76,5.76,0,0,1,1.31.12,2.54,2.54,0,0,1,1,.45,1.87,1.87,0,0,1,.62.84,2.76,2.76,0,0,1,.09,1.34,3.44,3.44,0,0,1-.45,1.33,2.66,2.66,0,0,1-.83.87,3.44,3.44,0,0,1-1.12.46,6.2,6.2,0,0,1-1.36.12h-1.47l-.48,3.55h-2Zm1.46,3.85h1.87a2.07,2.07,0,0,0,.47-.18,1.33,1.33,0,0,0,.37-.34,1,1,0,0,0,.19-.53.76.76,0,0,0-.09-.55.77.77,0,0,0-.36-.33,1.74,1.74,0,0,0-.54-.15,5.81,5.81,0,0,0-.59,0h-1Z"/><path class="cls-3" d="M133.86,37.86H140l-.25,1.84H135.6l-.23,1.75h3.94l-.25,1.85h-3.95l-.26,1.84h4.4L139,47h-6.41Z"/><path class="cls-3" d="M142.64,37.86h2.72l3,6.3h0l.88-6.3h2l-1.27,9.08h-2.62l-3-6.48h0l-.9,6.47h-2Z"/><path class="cls-3" d="M153.87,37.86h3a8.24,8.24,0,0,1,2,.23,4.36,4.36,0,0,1,1.6.79,3.19,3.19,0,0,1,1,1.42,5.28,5.28,0,0,1-.53,4.11,5.1,5.1,0,0,1-1.33,1.41,5.57,5.57,0,0,1-1.74.87,6.65,6.65,0,0,1-2,.3h-3.27Zm1,7.23h1.05a5.63,5.63,0,0,0,1.3-.14,2.91,2.91,0,0,0,1.1-.47,2.66,2.66,0,0,0,.81-.86,3.69,3.69,0,0,0,.43-1.3,2.33,2.33,0,0,0-.09-1.17,1.78,1.78,0,0,0-.55-.81,2.66,2.66,0,0,0-.93-.48,4.18,4.18,0,0,0-1.17-.16h-1.19Z"/><path class="cls-3" d="M167.37,37.86H169l2.68,9.08h-2.26l-.52-2h-3.52l-1,2h-2.21Zm.4,2.64-1.5,2.83h2.22Z"/><path class="cls-3" d="M174.66,37.86H178a7.71,7.71,0,0,1,1.18.08,2.89,2.89,0,0,1,1,.33,1.7,1.7,0,0,1,.68.7,2.36,2.36,0,0,1-.49,2.47,2.91,2.91,0,0,1-1.23.73h0a2.32,2.32,0,0,1,.77.25,1.73,1.73,0,0,1,.56.48,1.86,1.86,0,0,1,.31.67,2.26,2.26,0,0,1,0,.82,2.41,2.41,0,0,1-.47,1.21,3.17,3.17,0,0,1-.9.77,3.93,3.93,0,0,1-1.16.42,5.56,5.56,0,0,1-1.22.13h-3.72Zm1,7.39h1.79a2,2,0,0,0,.49-.06,1.31,1.31,0,0,0,.81-.51,1.13,1.13,0,0,0,.19-.5.74.74,0,0,0-.45-.82,1.78,1.78,0,0,0-.5-.14h-2Zm.52-3.76h1.45a1.76,1.76,0,0,0,.46-.06,1.31,1.31,0,0,0,.43-.16,1,1,0,0,0,.33-.31,1,1,0,0,0,.18-.46A.76.76,0,0,0,179,40a.75.75,0,0,0-.27-.29,1.5,1.5,0,0,0-.42-.15,3.69,3.69,0,0,0-.47,0h-1.36Z"/><path class="cls-3" d="M183.82,37.86h2l-1,7.23h3.76l-.26,1.85h-5.7Z"/><path class="cls-3" d="M191.53,37.86h6.17l-.25,1.84h-4.17L193,41.45h3.95l-.26,1.85h-3.94l-.22,1.79h4.4l-.26,1.85h-6.4Z"/><path class="cls-3" d="M199.52,44.87h1.88l-1.65,3.61H198.1Z"/><path class="cls-3" d="M209.48,37.86h6.1l-.26,1.84h-4L211,41.55h3.78l-.31,1.87H210.7L210.21,47h-2Z"/><path class="cls-3" d="M220.07,37.86h1.65l2.69,9.08h-2.27l-.52-2H218.1l-1,2H214.9Zm.4,2.64L219,43.33h2.18Z"/><path class="cls-3" d="M231.55,40.08a1.24,1.24,0,0,0-.61-.47,2.44,2.44,0,0,0-.77-.13,1.77,1.77,0,0,0-.46,0,1.9,1.9,0,0,0-.46.15,1.12,1.12,0,0,0-.36.29.78.78,0,0,0-.2.43.73.73,0,0,0,.11.52,1.27,1.27,0,0,0,.43.33,3.51,3.51,0,0,0,.64.24c.24.07.49.14.74.23a7.33,7.33,0,0,1,.72.3,2.28,2.28,0,0,1,.61.46,1.71,1.71,0,0,1,.38.7,2.36,2.36,0,0,1,0,1,3.22,3.22,0,0,1-1.3,2.32,3.69,3.69,0,0,1-1.19.55,5.73,5.73,0,0,1-1.37.19,4.61,4.61,0,0,1-1.6-.28,3.39,3.39,0,0,1-1.3-.87l1.66-1.57a1.82,1.82,0,0,0,.68.64,1.91,1.91,0,0,0,.94.22,2,2,0,0,0,.49-.06,1.38,1.38,0,0,0,.48-.17,1.12,1.12,0,0,0,.36-.29.77.77,0,0,0,.19-.43.65.65,0,0,0-.22-.65,2.5,2.5,0,0,0-.74-.39c-.29-.12-.62-.23-1-.34a4.43,4.43,0,0,1-1-.45,1.83,1.83,0,0,1-.84-2,3.29,3.29,0,0,1,.46-1.28,3.62,3.62,0,0,1,.91-.92,4.11,4.11,0,0,1,1.2-.56,4.9,4.9,0,0,1,1.32-.19,4.77,4.77,0,0,1,1.45.22,2.75,2.75,0,0,1,1.19.74Z"/><path class="cls-3" d="M237,39.62h-2.59l.25-1.76h7.21l-.24,1.76H239l-1,7.32h-2Z"/><path class="cls-3" d="M243.26,45.83a1.42,1.42,0,0,1,.16-.45,1.45,1.45,0,0,1,.3-.39,1.3,1.3,0,0,1,.41-.24,1.28,1.28,0,0,1,.48-.09,1,1,0,0,1,.78.34,1,1,0,0,1,.23.83,1.52,1.52,0,0,1-.15.47,1.26,1.26,0,0,1-.32.37,1.45,1.45,0,0,1-.4.26,1.36,1.36,0,0,1-.48.09,1.12,1.12,0,0,1-.44-.09,1,1,0,0,1-.35-.26,1,1,0,0,1-.22-.84Zm2.4-1.89h-2l.86-6.08h1.92Z"/></g></g></svg>