<svg width="486" height="61" viewBox="0 0 486 61" fill="none" xmlns="http://www.w3.org/2000/svg">
<path d="M105.602 28.5L77.1992 0L65 12.1992L69.1016 16.3008L77.1992 8.19922L97.5 28.5L77.1992 48.8008L69.1016 40.6992L65 36.6016L56.8984 28.5L65 20.3984L60.8984 16.3008L52.8008 24.3984L44.6992 16.3008L40.6992 12.1992L28.5 0L0 28.5L28.5 56.8984L40.6992 44.8008L36.6016 40.6992L28.5 48.8008L8.19922 28.5L28.5 8.19922L48.8008 28.5L40.6992 36.6016L44.6992 40.6992L52.8008 32.6016L65 44.8008L77.1992 56.8984" fill="#00CEA6"/>
<path d="M52.8008 8.19922L60.8984 16.3008L73.0977 28.5L65 36.5977L69.0977 40.6992L81.3008 28.5L69.0977 16.3008L65 12.1992L52.8008 0L40.6992 12.1992L44.6992 16.3008" fill="#024A6C"/>
<path d="M60.8984 40.6992L52.8008 48.8008L44.6992 40.6992L40.6992 36.5977L32.6016 28.5L40.6992 20.4023L36.6016 16.3008L24.3984 28.5L36.6016 40.6992L40.6992 44.8008L52.8008 56.8984L65 44.8008" fill="#024A6C"/>
<path d="M118.102 9.10156H142.699V15.5H125.102V25.1016H141.199V31.3008H125.102V41.8008H142.699V48.1992H118.102" fill="#024A6C"/>
<path d="M157 33.1992L146.898 18.6016H154.801L161 28.3008H161.102L167.301 18.6016H175.301L165.199 33.1992L175.602 48.3008H167.699L161.301 38.1992H161.199L154.801 48.3008H146.801" fill="#024A6C"/>
<path d="M202.102 33.5C202.102 27.6016 199.199 24 194.5 24C190.398 24 187.398 27.1016 187.398 31.1016V35.8984C187.398 40 190.398 43.1016 194.398 43.1016C199.199 43 202.102 39.3008 202.102 33.5ZM180.699 18.6016H187.301V21H187.398C189.301 19 192.199 17.8008 195.5 17.8008C203.301 17.8008 208.801 24.3008 208.801 33.5C208.801 42.6992 203.301 49.1992 195.5 49.1992C192.199 49.1992 189.199 47.8984 187.5 46H187.398V61H180.699" fill="#024A6C"/>
<path d="M233.5 30.5C233.301 26.3984 230.699 23.6016 226.5 23.6016C222.602 23.6016 219.699 26.6016 219.398 30.5H233.5ZM212.602 33.5C212.602 24.1992 218.301 17.8008 226.398 17.8008C234.602 17.8008 240.102 24 240.102 33.1016V35.3984H219.301C219.5 40.1016 222.199 43.3008 226.5 43.3008C229.801 43.3008 232 41.8984 234.301 38.3984L239.199 42C236.5 46.6992 232.102 49.1016 226.5 49.1016C218.301 49.1016 212.602 42.8008 212.602 33.5Z" fill="#024A6C"/>
<path d="M244.898 18.6016H251.199V21.1992H251.301C252.5 19.3008 254.699 18.1016 257.598 18.1016C258.898 18.1016 260.098 18.3008 261.199 18.6016L260 25.1992C258.801 24.8984 257.801 24.6992 256.801 24.6992C253.398 24.6992 251.598 27 251.598 31.8008V48.3984H244.898" fill="#024A6C"/>
<path d="M276.898 24.6016V39.3008C276.898 41.1992 277.598 41.8008 280 41.8008H283V48.1992H279.398C272.699 48.1992 270.199 45.8008 270.199 39.6016V24.6016H265.301V18.6016H270.199V11.3984H276.898V18.6016H284.199V24.6016" fill="#024A6C"/>
<path d="M290.801 18.6016H297.5V48.3008H290.801V18.6016ZM290.602 6.80078H297.699V13.6016H290.602V6.80078Z" fill="#024A6C"/>
<path d="M303.602 38.5977L309.699 37C310.699 41.5 312.801 43.4023 317.199 43.4023C320.398 43.4023 322.398 42.1992 322.398 40.4023C322.398 37.9023 319.801 36.8008 315.301 35.5C309.602 33.9023 305.102 32 305.102 26.5977C305.102 21.5977 309.699 17.8008 316 17.8008C321.898 17.8008 326.898 21.3008 328.199 26.5L322 28.1992C321 25 318.898 23.3984 316 23.3984C313.199 23.3984 311.5 24.5977 311.5 26.3984C311.5 28.0977 313.602 28.8984 317.398 30C323.398 31.6992 328.801 33.9023 328.801 40.0977C328.801 45.5 324.199 49.0977 317.199 49.0977C309.602 49.0977 304.699 45.3008 303.602 38.5977Z" fill="#024A6C"/>
<path d="M353.801 30.5C353.602 26.3984 351 23.6016 346.801 23.6016C342.902 23.6016 340 26.6016 339.699 30.5H353.801ZM332.902 33.5C332.902 24.1992 338.602 17.8008 346.699 17.8008C354.902 17.8008 360.402 24 360.402 33.1016V35.3984H339.602C339.801 40.1016 342.5 43.3008 346.801 43.3008C350.102 43.3008 352.301 41.8984 354.602 38.3984L359.5 42C356.801 46.6992 352.402 49.1016 346.801 49.1016C338.602 49.1016 332.902 42.8008 332.902 33.5Z" fill="#024A6C"/>
<path d="M366.898 48.3008H375V40.3984H366.898V48.3008Z" fill="#024A6C"/>
<path d="M380 33.5C380 24.1016 385.801 17.8008 394.199 17.8008C401.301 17.8008 406.301 22.1016 407.398 28.6992L401 29.8984C400.301 26.1016 397.898 24 394.199 24C389.699 24 386.801 27.6016 386.801 33.5C386.801 39.3984 389.699 43 394.199 43C398 43 400.301 40.8984 401 37.1016L407.398 38.3008C406.301 44.8984 401.199 49.1992 394.199 49.1992C385.801 49.1016 380 42.8008 380 33.5Z" fill="#024A6C"/>
<path d="M433.398 33.5C433.398 27.6016 430.5 24 425.699 24C420.898 24 418 27.6016 418 33.5C418 39.3984 420.898 43 425.699 43C430.5 43 433.398 39.3984 433.398 33.5ZM411.301 33.5C411.301 24.1016 417.098 17.8008 425.699 17.8008C434.301 17.8008 440.098 24.1016 440.098 33.5C440.098 42.8984 434.301 49.1992 425.699 49.1992C417.098 49.1016 411.301 42.8008 411.301 33.5Z" fill="#024A6C"/>
<path d="M445.398 18.6016H451.699V21.1016H451.801C453.398 19 456.301 17.6992 459.398 17.6992C462.398 17.6992 465.398 19.1016 467.098 21.3984H467.199C469.199 19 471.801 17.6992 475.199 17.6992C481.598 17.6992 486 22.3008 486 28.1992V48.1992H479.398V29.3984C479.398 25.8984 477.301 23.8984 474.098 23.8984C470.898 23.8984 468.801 26.1992 468.801 29.6992V48.1992H462.5V29.3984C462.5 25.8984 460.398 23.8984 457.199 23.8984C454 23.8984 451.898 26.1992 451.898 29.6992V48.1992H445.301V18.6016" fill="#024A6C"/>
</svg>
